# xmcd
#
# Track frame offsets: 
#        150
#        14271
#        33819
#        52922
#        71401
#        91411
#        108848
#        122331
#        137658
#        158487
#
# Disc length: 2352 seconds
#
# Revision: 0
# Processed by: cddbd v1.5.2PL0 Copyright (c) Steve Scherf et al.
# Submitted via: ExactAudioCopy v0.90b4
#
DISCID=6b092e0a
DTITLE=Davicito Paredes - La Muerte De Tite
DYEAR=2009
DGENRE=Latin
TTITLE0=Cuarto De Hotel
TTITLE1=Esta Quedao
TTITLE2=Todo
TTITLE3=Homenaje A Papa
TTITLE4=Aquí Y Alla
TTITLE5=Tu No Ta Buena Na'
TTITLE6=Te Puedes Quedar Con Tu Amor
TTITLE7=La Muerte De Tite
TTITLE8=El Rincon De Mis Ansias
TTITLE9=Las Menores
EXTD=
EXTT0=
EXTT1=
EXTT2=
EXTT3=
EXTT4=
EXTT5=
EXTT6=
EXTT7=
EXTT8=
EXTT9=
PLAYORDER=
